<?xml version="1.0" encoding="UTF-8"?>
<svg version="1.1" xmlns="http://www.w3.org/2000/svg" width="32" height="32">
<path d="M0 0 C10.56 0 21.12 0 32 0 C32 10.56 32 21.12 32 32 C21.44 32 10.88 32 0 32 C0 21.44 0 10.88 0 0 Z " fill="#E91C16" transform="translate(0,0)"/>
<path d="M0 0 C1.65 0 3.3 0 5 0 C5 1.65 5 3.3 5 5 C4.14148438 5.13728516 4.14148438 5.13728516 3.265625 5.27734375 C0.44544295 6.17688458 -1.07584262 7.56952241 -3.25 9.5625 C-3.95640625 10.20316406 -4.6628125 10.84382813 -5.390625 11.50390625 C-5.92171875 11.99761719 -6.4528125 12.49132813 -7 13 C-6.34 13.33 -5.68 13.66 -5 14 C-5 14.66 -5 15.32 -5 16 C-6.98 16 -8.96 16 -11 16 C-10.45799828 12.20598795 -8.9949434 10.80784756 -6.0625 8.4375 C-3.46971343 6.32468481 -1.88302476 4.82453714 0 2 C0 1.34 0 0.68 0 0 Z " fill="#FDECEB" transform="translate(19,8)"/>
<path d="M0 0 C2.97 0 5.94 0 9 0 C9 0.66 9 1.32 9 2 C6.69 2 4.38 2 2 2 C2 2.99 2 3.98 2 5 C1.34 5 0.68 5 0 5 C0 3.35 0 1.7 0 0 Z " fill="#FFFFFF" transform="translate(8,8)"/>
<path d="M0 0 C0.66 0 1.32 0 2 0 C2 1.65 2 3.3 2 5 C-0.64 5 -3.28 5 -6 5 C-6 4.34 -6 3.68 -6 3 C-4.02 3 -2.04 3 0 3 C0 2.01 0 1.02 0 0 Z " fill="#FFFFFF" transform="translate(22,19)"/>
<path d="M0 0 C1.65 0 3.3 0 5 0 C5 1.65 5 3.3 5 5 C4.34 5 3.68 5 3 5 C3 4.34 3 3.68 3 3 C2.01 2.67 1.02 2.34 0 2 C0 1.34 0 0.68 0 0 Z " fill="#FEFDFD" transform="translate(19,8)"/>
</svg>
